# xmcd
# 
# Track frame offsets:
#	150
#	15638
#	28900
#	40538
#	54288
#	68513
#	82988
#	95675
#	109963
#	122425
#	133825
#	146125
#	158663
#	171675
#	185513
#	198225
#	210988
#	225250
#
# Disc length: 3177 seconds
#
# Revision: 1
# Processed by: cddbd v1.4PL0 Copyright (c) Steve Scherf et al.
# Submitted via: Audio-CD-Archiv 2.10.438
#
DISCID=ed0c6712
DTITLE=Jimmie Gordon - Vol. 2  (1934 - 1941)
DYEAR=1900
DGENRE=blues
TTITLE0=Bad Springs Blues
TTITLE1=Don´t Take Away My P.W.A.
TTITLE2=She Sells Good Meat
TTITLE3=Jacksonville - Part 1
TTITLE4=Jacksonville - Part 2
TTITLE5=Crying My Blues Away
TTITLE6=Fast Life
TTITLE7=Lonesome Bedroom Blues
TTITLE8=She´s Doin´ It Now
TTITLE9=Whip It To A Jelly
TTITLE10=Get Your Mind Out Of The Gutter
TTITLE11=The Boogie Man
TTITLE12=Trigger Slim Blues
TTITLE13=Let ´Em Jump For Joy
TTITLE14=Boogie Woogie Blues
TTITLE15=Action Speaks Louder Than Words
TTITLE16=Daddy Bear Blues
TTITLE17=Lookin´ For The Blues
EXTD=
EXTT0=
EXTT1=
EXTT2=
EXTT3=
EXTT4=
EXTT5=
EXTT6=
EXTT7=
EXTT8=
EXTT9=
EXTT10=
EXTT11=
EXTT12=
EXTT13=
EXTT14=
EXTT15=
EXTT16=
EXTT17=
PLAYORDER=
